<svg width="1444" height="720" viewBox="0 0 1444 720" fill="none" xmlns="http://www.w3.org/2000/svg">
<g id="grid" clip-path="url(#clip0_2089_6226)">
    <rect width="1444" height="720" fill="white"/>
    <path id="Vector" d="M2097.58 -313.473L-638.41 1054.52" stroke="#EDEDED" stroke-miterlimit="1.5" stroke-linecap="round" stroke-linejoin="round"/>
    <path id="Vector_2" d="M2119.61 -284.486L-616.383 1083.51" stroke="#EDEDED" stroke-miterlimit="1.5" stroke-linecap="round" stroke-linejoin="round"/>
    <path id="Vector_3" d="M2146.41 -257.884L-592.522 1111.58" stroke="#EDEDED" stroke-miterlimit="1.5" stroke-linecap="round" stroke-linejoin="round"/>
    <path id="Vector_4" d="M2170.55 -229.954L-568.381 1139.51" stroke="#EDEDED" stroke-miterlimit="1.5" stroke-linecap="round" stroke-linejoin="round"/>
    <path id="Vector_5" d="M2191.61 -200.485L-547.319 1168.98" stroke="#EDEDED" stroke-miterlimit="1.5" stroke-linecap="round" stroke-linejoin="round"/>
    <path id="Vector_6" d="M1693.64 -863.5L-1042.36 504.497" stroke="#EDEDED" stroke-miterlimit="1.5" stroke-linecap="round" stroke-linejoin="round"/>
    <path id="Vector_7" d="M1709.64 -839.5L-1026.36 528.497" stroke="#EDEDED" stroke-miterlimit="1.5" stroke-linecap="round" stroke-linejoin="round"/>
    <path id="Vector_8" d="M1736.44 -812.898L-1002.49 556.568" stroke="#EDEDED" stroke-miterlimit="1.5" stroke-linecap="round" stroke-linejoin="round"/>
    <path id="Vector_9" d="M1760.58 -784.968L-978.354 584.498" stroke="#EDEDED" stroke-miterlimit="1.5" stroke-linecap="round" stroke-linejoin="round"/>
    <path id="Vector_10" d="M1781.64 -755.499L-957.292 613.967" stroke="#EDEDED" stroke-miterlimit="1.5" stroke-linecap="round" stroke-linejoin="round"/>
    <path id="Vector_11" d="M1802.7 -726.03L-936.229 643.436" stroke="#EDEDED" stroke-miterlimit="1.5" stroke-linecap="round" stroke-linejoin="round"/>
    <path id="Vector_12" d="M1823.76 -696.562L-915.167 672.904" stroke="#EDEDED" stroke-miterlimit="1.5" stroke-linecap="round" stroke-linejoin="round"/>
    <path id="Vector_13" d="M1844.83 -667.093L-894.104 702.373" stroke="#EDEDED" stroke-miterlimit="1.5" stroke-linecap="round" stroke-linejoin="round"/>
    <path id="Vector_14" d="M1865.89 -637.624L-873.038 731.842" stroke="#EDEDED" stroke-miterlimit="1.5" stroke-linecap="round" stroke-linejoin="round"/>
    <path id="Vector_15" d="M1886.96 -608.157L-851.975 761.309" stroke="#EDEDED" stroke-miterlimit="1.5" stroke-linecap="round" stroke-linejoin="round"/>
    <path id="Vector_16" d="M1908.02 -578.689L-830.913 790.777" stroke="#EDEDED" stroke-miterlimit="1.5" stroke-linecap="round" stroke-linejoin="round"/>
    <path id="Vector_17" d="M1929.08 -549.22L-809.85 820.246" stroke="#EDEDED" stroke-miterlimit="1.5" stroke-linecap="round" stroke-linejoin="round"/>
    <path id="Vector_18" d="M1950.14 -519.751L-788.788 849.715" stroke="#EDEDED" stroke-miterlimit="1.5" stroke-linecap="round" stroke-linejoin="round"/>
    <path id="Vector_19" d="M1971.21 -490.282L-767.725 879.184" stroke="#EDEDED" stroke-miterlimit="1.5" stroke-linecap="round" stroke-linejoin="round"/>
    <path id="Vector_20" d="M1992.27 -460.814L-746.663 908.652" stroke="#EDEDED" stroke-miterlimit="1.5" stroke-linecap="round" stroke-linejoin="round"/>
    <path id="Vector_21" d="M2013.33 -431.345L-725.6 938.121" stroke="#EDEDED" stroke-miterlimit="1.5" stroke-linecap="round" stroke-linejoin="round"/>
    <path id="Vector_22" d="M2034.39 -401.876L-704.538 967.59" stroke="#EDEDED" stroke-miterlimit="1.5" stroke-linecap="round" stroke-linejoin="round"/>
    <path id="Vector_23" d="M2055.46 -372.407L-683.475 997.059" stroke="#EDEDED" stroke-miterlimit="1.5" stroke-linecap="round" stroke-linejoin="round"/>
    <path id="Vector_24" d="M2076.52 -342.941L-662.409 1026.53" stroke="#EDEDED" stroke-miterlimit="1.5" stroke-linecap="round" stroke-linejoin="round"/>
    <path id="Vector_25" d="M2212.67 -171.017L-526.256 1198.45" stroke="#EDEDED" stroke-miterlimit="1.5" stroke-linecap="round" stroke-linejoin="round"/>
    <path id="Vector_26" d="M2233.74 -141.548L-505.194 1227.92" stroke="#EDEDED" stroke-miterlimit="1.5" stroke-linecap="round" stroke-linejoin="round"/>
    <path id="Vector_27" d="M2254.8 -112.079L-484.131 1257.39" stroke="#EDEDED" stroke-miterlimit="1.5" stroke-linecap="round" stroke-linejoin="round"/>
    <path id="Vector_28" d="M2275.86 -82.6104L-463.069 1286.86" stroke="#EDEDED" stroke-miterlimit="1.5" stroke-linecap="round" stroke-linejoin="round"/>
    <path id="Vector_29" d="M2296.92 -53.1417L-442.006 1316.32" stroke="#EDEDED" stroke-miterlimit="1.5" stroke-linecap="round" stroke-linejoin="round"/>
    <path id="Vector_30" d="M2317.99 -23.6729L-420.94 1345.79" stroke="#EDEDED" stroke-miterlimit="1.5" stroke-linecap="round" stroke-linejoin="round"/>
    <path id="Vector_31" d="M2339.05 5.79582L-399.877 1375.26" stroke="#EDEDED" stroke-miterlimit="1.5" stroke-linecap="round" stroke-linejoin="round"/>
    <path id="Vector_32" d="M2360.12 35.2626L-378.815 1404.73" stroke="#EDEDED" stroke-miterlimit="1.5" stroke-linecap="round" stroke-linejoin="round"/>
    <path id="Vector_33" d="M2381.18 64.7314L-357.752 1434.2" stroke="#EDEDED" stroke-miterlimit="1.5" stroke-linecap="round" stroke-linejoin="round"/>
    <path id="Vector_34" d="M2402.24 94.2001L-336.69 1463.67" stroke="#EDEDED" stroke-miterlimit="1.5" stroke-linecap="round" stroke-linejoin="round"/>
    <path id="Vector_35" d="M2423.3 123.669L-315.627 1493.13" stroke="#EDEDED" stroke-miterlimit="1.5" stroke-linecap="round" stroke-linejoin="round"/>
    <path id="Vector_36" d="M2444.37 153.138L-294.565 1522.6" stroke="#EDEDED" stroke-miterlimit="1.5" stroke-linecap="round" stroke-linejoin="round"/>
    <path id="Vector_37" d="M2465.43 182.606L-273.502 1552.07" stroke="#EDEDED" stroke-miterlimit="1.5" stroke-linecap="round" stroke-linejoin="round"/>
    <path id="Vector_38" d="M2486.49 212.073L-252.436 1581.54" stroke="#EDEDED" stroke-miterlimit="1.5" stroke-linecap="round" stroke-linejoin="round"/>
    <path id="Vector_39" d="M-653.436 -313.473L2082.56 1054.52" stroke="#EDEDED" stroke-miterlimit="1.5" stroke-linecap="round" stroke-linejoin="round"/>
    <path id="Vector_40" d="M-675.467 -284.486L2060.53 1083.51" stroke="#EDEDED" stroke-miterlimit="1.5" stroke-linecap="round" stroke-linejoin="round"/>
    <path id="Vector_41" d="M-702.265 -257.884L2036.67 1111.58" stroke="#EDEDED" stroke-miterlimit="1.5" stroke-linecap="round" stroke-linejoin="round"/>
    <path id="Vector_42" d="M-726.405 -229.954L2012.53 1139.51" stroke="#EDEDED" stroke-miterlimit="1.5" stroke-linecap="round" stroke-linejoin="round"/>
    <path id="Vector_43" d="M-747.464 -200.485L1991.47 1168.98" stroke="#EDEDED" stroke-miterlimit="1.5" stroke-linecap="round" stroke-linejoin="round"/>
    <path id="Vector_44" d="M-249.498 -863.5L2486.5 504.497" stroke="#EDEDED" stroke-miterlimit="1.5" stroke-linecap="round" stroke-linejoin="round"/>
    <path id="Vector_45" d="M-265.498 -839.5L2470.5 528.497" stroke="#EDEDED" stroke-miterlimit="1.5" stroke-linecap="round" stroke-linejoin="round"/>
    <path id="Vector_46" d="M-292.292 -812.898L2446.64 556.568" stroke="#EDEDED" stroke-miterlimit="1.5" stroke-linecap="round" stroke-linejoin="round"/>
    <path id="Vector_47" d="M-316.432 -784.968L2422.5 584.498" stroke="#EDEDED" stroke-miterlimit="1.5" stroke-linecap="round" stroke-linejoin="round"/>
    <path id="Vector_48" d="M-337.495 -755.499L2401.44 613.967" stroke="#EDEDED" stroke-miterlimit="1.5" stroke-linecap="round" stroke-linejoin="round"/>
    <path id="Vector_49" d="M-358.554 -726.03L2380.38 643.436" stroke="#EDEDED" stroke-miterlimit="1.5" stroke-linecap="round" stroke-linejoin="round"/>
    <path id="Vector_50" d="M-379.612 -696.562L2359.32 672.904" stroke="#EDEDED" stroke-miterlimit="1.5" stroke-linecap="round" stroke-linejoin="round"/>
    <path id="Vector_51" d="M-400.682 -667.093L2338.25 702.373" stroke="#EDEDED" stroke-miterlimit="1.5" stroke-linecap="round" stroke-linejoin="round"/>
    <path id="Vector_52" d="M-421.745 -637.624L2317.19 731.842" stroke="#EDEDED" stroke-miterlimit="1.5" stroke-linecap="round" stroke-linejoin="round"/>
    <path id="Vector_53" d="M-442.804 -608.157L2296.13 761.309" stroke="#EDEDED" stroke-miterlimit="1.5" stroke-linecap="round" stroke-linejoin="round"/>
    <path id="Vector_54" d="M-463.874 -578.689L2275.06 790.777" stroke="#EDEDED" stroke-miterlimit="1.5" stroke-linecap="round" stroke-linejoin="round"/>
    <path id="Vector_55" d="M-484.932 -549.22L2254 820.246" stroke="#EDEDED" stroke-miterlimit="1.5" stroke-linecap="round" stroke-linejoin="round"/>
    <path id="Vector_56" d="M-505.995 -519.751L2232.94 849.715" stroke="#EDEDED" stroke-miterlimit="1.5" stroke-linecap="round" stroke-linejoin="round"/>
    <path id="Vector_57" d="M-527.065 -490.282L2211.87 879.184" stroke="#EDEDED" stroke-miterlimit="1.5" stroke-linecap="round" stroke-linejoin="round"/>
    <path id="Vector_58" d="M-548.124 -460.814L2190.81 908.652" stroke="#EDEDED" stroke-miterlimit="1.5" stroke-linecap="round" stroke-linejoin="round"/>
    <path id="Vector_59" d="M-569.182 -431.345L2169.75 938.121" stroke="#EDEDED" stroke-miterlimit="1.5" stroke-linecap="round" stroke-linejoin="round"/>
    <path id="Vector_60" d="M-590.245 -401.876L2148.69 967.59" stroke="#EDEDED" stroke-miterlimit="1.5" stroke-linecap="round" stroke-linejoin="round"/>
    <path id="Vector_61" d="M-611.315 -372.407L2127.62 997.059" stroke="#EDEDED" stroke-miterlimit="1.5" stroke-linecap="round" stroke-linejoin="round"/>
    <path id="Vector_62" d="M-632.374 -342.941L2106.56 1026.53" stroke="#EDEDED" stroke-miterlimit="1.5" stroke-linecap="round" stroke-linejoin="round"/>
    <path id="Vector_63" d="M-768.522 -171.017L1970.41 1198.45" stroke="#EDEDED" stroke-miterlimit="1.5" stroke-linecap="round" stroke-linejoin="round"/>
    <path id="Vector_64" d="M-789.593 -141.548L1949.34 1227.92" stroke="#EDEDED" stroke-miterlimit="1.5" stroke-linecap="round" stroke-linejoin="round"/>
    <path id="Vector_65" d="M-810.655 -112.079L1928.28 1257.39" stroke="#EDEDED" stroke-miterlimit="1.5" stroke-linecap="round" stroke-linejoin="round"/>
    <path id="Vector_66" d="M-831.714 -82.6104L1907.22 1286.86" stroke="#EDEDED" stroke-miterlimit="1.5" stroke-linecap="round" stroke-linejoin="round"/>
    <path id="Vector_67" d="M-852.784 -53.1417L1886.15 1316.32" stroke="#EDEDED" stroke-miterlimit="1.5" stroke-linecap="round" stroke-linejoin="round"/>
    <path id="Vector_68" d="M-873.843 -23.6729L1865.09 1345.79" stroke="#EDEDED" stroke-miterlimit="1.5" stroke-linecap="round" stroke-linejoin="round"/>
    <path id="Vector_69" d="M-894.905 5.79582L1844.03 1375.26" stroke="#EDEDED" stroke-miterlimit="1.5" stroke-linecap="round" stroke-linejoin="round"/>
    <path id="Vector_70" d="M-915.964 35.2626L1822.97 1404.73" stroke="#EDEDED" stroke-miterlimit="1.5" stroke-linecap="round" stroke-linejoin="round"/>
    <path id="Vector_71" d="M-937.034 64.7314L1801.9 1434.2" stroke="#EDEDED" stroke-miterlimit="1.5" stroke-linecap="round" stroke-linejoin="round"/>
    <path id="Vector_72" d="M-958.093 94.2001L1780.84 1463.67" stroke="#EDEDED" stroke-miterlimit="1.5" stroke-linecap="round" stroke-linejoin="round"/>
    <path id="Vector_73" d="M-979.155 123.669L1759.78 1493.13" stroke="#EDEDED" stroke-miterlimit="1.5" stroke-linecap="round" stroke-linejoin="round"/>
    <path id="Vector_74" d="M-1000.23 153.138L1738.71 1522.6" stroke="#EDEDED" stroke-miterlimit="1.5" stroke-linecap="round" stroke-linejoin="round"/>
    <path id="Vector_75" d="M-1021.28 182.606L1717.65 1552.07" stroke="#EDEDED" stroke-miterlimit="1.5" stroke-linecap="round" stroke-linejoin="round"/>
    <path id="Vector_76" d="M-1042.34 212.073L1696.59 1581.54" stroke="#EDEDED" stroke-miterlimit="1.5" stroke-linecap="round" stroke-linejoin="round"/>
    <g id="fade">
        <rect id="Rectangle 34640430" width="1444" height="140" transform="matrix(1 0 0 -1 0 719.996)" fill="url(#paint0_linear_2089_6226)"/>
        <rect id="Rectangle 34640431" width="1444" height="140" fill="url(#paint1_linear_2089_6226)"/>
        <rect id="Rectangle 34640432" y="719.996" width="719.996" height="100" transform="rotate(-90 0 719.996)" fill="url(#paint2_linear_2089_6226)"/>
        <rect id="Rectangle 34640433" width="719.996" height="100" transform="matrix(4.37114e-08 -1 -1 -4.37114e-08 1444 719.996)" fill="url(#paint3_linear_2089_6226)"/>
    </g>
</g>
<defs>
    <linearGradient id="paint0_linear_2089_6226" x1="722" y1="0" x2="722" y2="140" gradientUnits="userSpaceOnUse">
    <stop stop-color="white"/>
    <stop offset="0.735" stop-color="white" stop-opacity="0.45"/>
    </linearGradient>
    <linearGradient id="paint1_linear_2089_6226" x1="722" y1="0" x2="722" y2="140" gradientUnits="userSpaceOnUse">
    <stop stop-color="white"/>
    <stop offset="0.735" stop-color="white" stop-opacity="0.45"/>
    </linearGradient>
    <linearGradient id="paint2_linear_2089_6226" x1="359.998" y1="719.996" x2="359.998" y2="819.996" gradientUnits="userSpaceOnUse">
    <stop stop-color="white"/>
    <stop offset="0.735" stop-color="white" stop-opacity="0.45"/>
    </linearGradient>
    <linearGradient id="paint3_linear_2089_6226" x1="359.998" y1="0" x2="359.998" y2="100" gradientUnits="userSpaceOnUse">
    <stop stop-color="white"/>
    <stop offset="0.735" stop-color="white" stop-opacity="0.45"/>
    </linearGradient>
    <clipPath id="clip0_2089_6226">
        <rect width="1444" height="720" fill="white"/>
    </clipPath>
</defs>
</svg>
